{"title":"Combat Hospital S01E13 (HDTV DD5.1 ENG+NL Subs) Hornigold TBS","uid":6673368,"size":1112494145,"categoryP":"video","categoryS":"hd___tv_shows","magnet":"?xt=urn:btih:3c9d7f01ec2d37535fa6929dbd8747a6c15493dd&amp;dn=Combat+Hospital+S01E13+%28HDTV+DD5.1+ENG%2BNL+Subs%29+Hornigold+TBS&amp;tr=udp%3A%2F%2Ftracker.openbittorrent.com%3A80&amp;tr=udp%3A%2F%2Fopen.demonii.com%3A1337&amp;tr=udp%3A%2F%2Ftracker.coppersurfer.tk%3A6969&amp;tr=udp%3A%2F%2Fexodus.desync.com%3A6969","seeders":0,"leechers":0,"uploader":"Hornigold","files":-1,"time":1315948601,"description":"From now on I will only place the video and audio information of the video file up here as well a link to the IMDB site for more information about the series. Why Am I doing this? Because it saves me a lot of time. Information about the quality can be found in the video and audio information and also in the title of the torrent. I only upload episodes in HD quality (or WEB-DL that is HD without the advertisements) or dvd's that have been converted from HD quality (custom dvd's) or retail versions.\n\nMore information about this series can be found at IMDB: &lt;a href=&quot; http://www.imdb.com/title/tt1829891/&quot; rel=&quot;nofollow&quot; target=&quot;_NEW&quot;&gt; http://www.imdb.com/title/tt1829891/&lt;/a&gt;\n\nVideo and audio information:\n~~~~~~~~~~~~~~~~~~~~~~\nFormat                           : Matroska\nFormat version                   : Version 1\nFile size                        : 1.04 GiB\nDuration                         : 41mn 18s\nOverall bit rate                 : 3 591 Kbps\nEncoded date                     : UTC 2011-09-07 04:08:23\nWriting application              : mkvmerge v2.0.2 ('You're My Flame') built on Jul 16 2008 20:03:58\nWriting library                  : libebml v0.7.7 + libmatroska v0.8.1\n\nVideo\nID                               : 1\nFormat                           : AVC\nFormat/Info                      : Advanced Video Codec\nFormat profile                   : &lt;a class=&quot;__cf_email__&quot; href=&quot;/cdn-cgi/l/email-protection&quot; data-cfemail=&quot;357d5c525d7579061b04&quot;&gt;[email&amp;#160;protected]&lt;/a&gt;&lt;script data-cfhash='f9e31' type=&quot;text/javascript&quot;&gt;\n/* &lt;![CDATA[ */!function(){try{var t=&quot;currentScript&quot;in document?document.currentScript:function(){for(var t=document.getElementsByTagName(&quot;script&quot;),e=t.length;e--;)if(t[e].getAttribute(&quot;data-cfhash&quot;))return t[e]}();if(t&amp;&amp;t.previousSibling){var e,r,n,i,c=t.previousSibling,a=c.getAttribute(&quot;data-cfemail&quot;);if(a){for(e=&quot;&quot;,r=parseInt(a.substr(0,2),16),n=2;a.length-n;n+=2)i=parseInt(a.substr(n,2),16)^r,e+=String.fromCharCode(i);e=document.createTextNode(e),c.parentNode.replaceChild(e,c)}t.parentNode.removeChild(t);}}catch(u){}}()/* ]]&gt; */&lt;/script&gt;\nFormat settings, CABAC           : Yes\nFormat settings, ReFrames        : 5 frames\nCodec ID                         : V_MPEG4/ISO/AVC\nDuration                         : 41mn 18s\nBit rate                         : 3 135 Kbps\nWidth                            : 1 280 pixels\nHeight                           : 720 pixels\nDisplay aspect ratio             : 16:9\nFrame rate                       : 23.976 fps\nColor space                      : YUV\nChroma subsampling               : 4:2:0\nBit depth                        : 8 bits\nScan type                        : Progressive\nBits/(Pixel*Frame)               : 0.142\nStream size                      : 926 MiB (87%)\nWriting library                  : x264 core 116 r2074 2641b9e\nEncoding settings                : cabac=1 / ref=5 / deblock=1:0:0 / analyse=0x3:0x113 / me=umh / subme=8 / psy=1 / psy_rd=1.00:0.00 / mixed_ref=1 / me_range=16 / chroma_me=1 / trellis=1 / 8x8dct=1 / cqm=0 / deadzone=21,11 / fast_pskip=1 / chroma_qp_offset=-2 / threads=12 / sliced_threads=0 / nr=0 / decimate=1 / interlaced=0 / bluray_compat=0 / constrained_intra=0 / bframes=3 / b_pyramid=2 / b_adapt=2 / b_bias=0 / direct=3 / weightb=1 / open_gop=0 / weightp=2 / keyint=250 / keyint_min=23 / scenecut=40 / intra_refresh=0 / rc_lookahead=50 / rc=crf / mbtree=1 / crf=19.0 / qcomp=0.60 / qpmin=0 / qpmax=69 / qpstep=4 / ip_ratio=1.40 / aq=1:1.00\nLanguage                         : English\n\nAudio\nID                               : 2\nFormat                           : AC-3\nFormat/Info                      : Audio Coding 3\nMode extension                   : CM (complete main)\nCodec ID                         : A_AC3\nDuration                         : 41mn 18s\nBit rate mode                    : Constant\nBit rate                         : 384 Kbps\nChannel(s)                       : 6 channels\nChannel positions                : Front: L C R, Side: L R, LFE\nSampling rate                    : 48.0 KHz\nBit depth                        : 16 bits\nCompression mode                 : Lossy\nStream size                      : 113 MiB (11%)\n\nStop by at our forum at: &lt;a href=&quot; http://black-sam.org&quot; rel=&quot;nofollow&quot; target=&quot;_NEW&quot;&gt; http://black-sam.org&lt;/a&gt;\nKom ook eens kijken op ons gezellige forum: &lt;a href=&quot; http://black-sam.org&quot; rel=&quot;nofollow&quot; target=&quot;_NEW&quot;&gt; http://black-sam.org&lt;/a&gt;\n","torrent":{"xt":"urn:btih:3c9d7f01ec2d37535fa6929dbd8747a6c15493dd","amp;dn":"Combat+Hospital+S01E13+%28HDTV+DD5.1+ENG%2BNL+Subs%29+Hornigold+TBS","amp;tr":["udp%3A%2F%2Ftracker.openbittorrent.com%3A80","udp%3A%2F%2Fopen.demonii.com%3A1337","udp%3A%2F%2Ftracker.coppersurfer.tk%3A6969","udp%3A%2F%2Fexodus.desync.com%3A6969"],"infoHash":"3c9d7f01ec2d37535fa6929dbd8747a6c15493dd","infoHashBuffer":{"type":"Buffer","data":[60,157,127,1,236,45,55,83,95,166,146,157,189,135,71,166,193,84,147,221]},"announce":[],"urlList":[]}}